<svg width="24" height="24" viewBox="0 0 24 24" fill="none" xmlns="http://www.w3.org/2000/svg">
<path d="M7.90909 3.59091C7.90909 2.71273 8.62182 2 9.5 2H14.5C15.3782 2 16.0909 2.71273 16.0909 3.59091V5.63636H20.4091C21.2873 5.63636 22 6.34909 22 7.22727V20.4091C22 20.831 21.8324 21.2357 21.534 21.534C21.2357 21.8324 20.831 22 20.4091 22H3.59091C3.16897 22 2.76432 21.8324 2.46597 21.534C2.16761 21.2357 2 20.831 2 20.4091V7.22727C2 6.34909 2.71273 5.63636 3.59091 5.63636H7.90909V3.59091ZM3.36364 12.9V20.4091C3.36364 20.5345 3.46545 20.6364 3.59091 20.6364H20.4091C20.4694 20.6364 20.5272 20.6124 20.5698 20.5698C20.6124 20.5272 20.6364 20.4694 20.6364 20.4091V12.9C19.9388 13.4937 19.0524 13.8193 18.1364 13.8182H5.86364C4.94761 13.8193 4.0612 13.4937 3.36364 12.9ZM20.6364 9.95455V7.22727C20.6364 7.167 20.6124 7.10919 20.5698 7.06657C20.5272 7.02394 20.4694 7 20.4091 7H3.59091C3.53063 7 3.47283 7.02394 3.4302 7.06657C3.38758 7.10919 3.36364 7.167 3.36364 7.22727V9.95455C3.36364 10.6176 3.62703 11.2535 4.09587 11.7223C4.56471 12.1912 5.2006 12.4545 5.86364 12.4545H18.1364C18.7994 12.4545 19.4353 12.1912 19.9041 11.7223C20.373 11.2535 20.6364 10.6176 20.6364 9.95455ZM14.7273 3.59091C14.7273 3.53063 14.7033 3.47283 14.6607 3.4302C14.6181 3.38758 14.5603 3.36364 14.5 3.36364H9.5C9.43972 3.36364 9.38192 3.38758 9.33929 3.4302C9.29667 3.47283 9.27273 3.53063 9.27273 3.59091V5.63636H14.7273V3.59091Z" fill="white"/>
</svg>
