<svg width="20" height="20" viewBox="0 0 20 20" fill="none" xmlns="http://www.w3.org/2000/svg">
<path d="M9.2 2.8C9.2 2.3582 9.5582 2 10 2C10.4418 2 10.8 2.3582 10.8 2.8V3.6C10.8 4.0418 10.4418 4.4 10 4.4C9.5582 4.4 9.2 4.0418 9.2 3.6V2.8Z" fill="#7B8EC8"/>
<path d="M14 10C14 12.2092 12.2092 14 10 14C7.79082 14 6 12.2092 6 10C6 7.79082 7.79082 6 10 6C12.2092 6 14 7.79082 14 10Z" fill="#7B8EC8"/>
<path d="M10 15.6C9.5582 15.6 9.2 15.9582 9.2 16.4V17.2C9.2 17.6418 9.5582 18 10 18C10.4418 18 10.8 17.6418 10.8 17.2V16.4C10.8 15.9582 10.4418 15.6 10 15.6Z" fill="#7B8EC8"/>
<path d="M4.34316 5.47451C4.03066 5.16201 4.03066 4.65557 4.34316 4.34307C4.65557 4.03066 5.16211 4.03066 5.47451 4.34307L6.04014 4.90879C6.35264 5.22119 6.35264 5.72773 6.04014 6.04014C5.72773 6.35254 5.22119 6.35254 4.90879 6.04014L4.34316 5.47451Z" fill="#7B8EC8"/>
<path d="M13.9598 13.9598C13.6474 14.2722 13.6474 14.7787 13.9598 15.0911L14.5255 15.6568C14.8379 15.9692 15.3444 15.9692 15.6568 15.6568C15.9692 15.3444 15.9692 14.8379 15.6568 14.5255L15.0911 13.9598C14.7787 13.6474 14.2722 13.6474 13.9598 13.9598Z" fill="#7B8EC8"/>
<path d="M2.8 10.8C2.3582 10.8 2 10.4418 2 10C2 9.5582 2.3582 9.2 2.8 9.2H3.6C4.0418 9.2 4.4 9.5582 4.4 10C4.4 10.4418 4.0418 10.8 3.6 10.8H2.8Z" fill="#7B8EC8"/>
<path d="M15.6 10C15.6 10.4418 15.9582 10.8 16.4 10.8H17.2C17.6418 10.8 18 10.4418 18 10C18 9.5582 17.6418 9.2 17.2 9.2H16.4C15.9582 9.2 15.6 9.5582 15.6 10Z" fill="#7B8EC8"/>
<path d="M4.99863 15.2408C4.66025 15.5248 4.15557 15.4807 3.87158 15.1423C3.5876 14.8038 3.63174 14.2992 3.97021 14.0151L4.58301 13.501C4.92148 13.217 5.42607 13.2611 5.71016 13.5995C5.99414 13.938 5.95 14.4426 5.61152 14.7267L4.99863 15.2408Z" fill="#7B8EC8"/>
<path d="M14.2898 6.40029C14.5738 6.73877 15.0784 6.78291 15.4169 6.49893L16.0297 5.98467C16.3682 5.70068 16.4123 5.19609 16.1283 4.85762C15.8443 4.51914 15.3397 4.475 15.0013 4.75908L14.3884 5.27324C14.05 5.55723 14.0059 6.06191 14.2898 6.40029Z" fill="#7B8EC8"/>
</svg>
